<mxfile host="app.diagrams.net" agent="Mozilla/5.0 (Macintosh; Intel Mac OS X 10_15_7) AppleWebKit/537.36 (KHTML, like Gecko) Chrome/128.0.0.0 Safari/537.36" version="24.7.7">
  <diagram name="第 1 页" id="hvBIy25wogWQ5iqZJSI8">
    <mxGraphModel dx="954" dy="605" grid="0" gridSize="10" guides="1" tooltips="1" connect="1" arrows="1" fold="1" page="1" pageScale="1" pageWidth="827" pageHeight="1169" math="0" shadow="0">
      <root>
        <mxCell id="0" />
        <mxCell id="1" parent="0" />
        <mxCell id="Lx16mgIpqbLcoNnjBxlw-1" value="Editor" style="rounded=1;whiteSpace=wrap;html=1;fillColor=#dae8fc;strokeColor=#6c8ebf;" vertex="1" parent="1">
          <mxGeometry x="170" y="110" width="140" height="60" as="geometry" />
        </mxCell>
        <mxCell id="Lx16mgIpqbLcoNnjBxlw-23" value="" style="edgeStyle=orthogonalEdgeStyle;rounded=0;orthogonalLoop=1;jettySize=auto;html=1;" edge="1" parent="1" source="Lx16mgIpqbLcoNnjBxlw-2" target="Lx16mgIpqbLcoNnjBxlw-1">
          <mxGeometry relative="1" as="geometry" />
        </mxCell>
        <mxCell id="Lx16mgIpqbLcoNnjBxlw-24" value="调用同步请求" style="edgeLabel;html=1;align=center;verticalAlign=middle;resizable=0;points=[];" vertex="1" connectable="0" parent="Lx16mgIpqbLcoNnjBxlw-23">
          <mxGeometry x="0.0909" y="-1" relative="1" as="geometry">
            <mxPoint as="offset" />
          </mxGeometry>
        </mxCell>
        <mxCell id="Lx16mgIpqbLcoNnjBxlw-2" value="editorworker" style="rounded=1;whiteSpace=wrap;html=1;fillColor=#dae8fc;strokeColor=#6c8ebf;" vertex="1" parent="1">
          <mxGeometry x="420" y="110" width="140" height="60" as="geometry" />
        </mxCell>
        <mxCell id="Lx16mgIpqbLcoNnjBxlw-11" value="" style="edgeStyle=orthogonalEdgeStyle;rounded=0;orthogonalLoop=1;jettySize=auto;html=1;" edge="1" parent="1" source="Lx16mgIpqbLcoNnjBxlw-3" target="Lx16mgIpqbLcoNnjBxlw-4">
          <mxGeometry relative="1" as="geometry" />
        </mxCell>
        <mxCell id="Lx16mgIpqbLcoNnjBxlw-12" value="持久化存储任务信息" style="edgeLabel;html=1;align=center;verticalAlign=middle;resizable=0;points=[];" vertex="1" connectable="0" parent="Lx16mgIpqbLcoNnjBxlw-11">
          <mxGeometry x="-0.05" y="1" relative="1" as="geometry">
            <mxPoint as="offset" />
          </mxGeometry>
        </mxCell>
        <mxCell id="Lx16mgIpqbLcoNnjBxlw-18" value="" style="edgeStyle=orthogonalEdgeStyle;rounded=0;orthogonalLoop=1;jettySize=auto;html=1;" edge="1" parent="1" source="Lx16mgIpqbLcoNnjBxlw-3" target="Lx16mgIpqbLcoNnjBxlw-17">
          <mxGeometry relative="1" as="geometry" />
        </mxCell>
        <mxCell id="Lx16mgIpqbLcoNnjBxlw-20" value="生产任务" style="edgeLabel;html=1;align=center;verticalAlign=middle;resizable=0;points=[];" vertex="1" connectable="0" parent="Lx16mgIpqbLcoNnjBxlw-18">
          <mxGeometry x="0.02" y="1" relative="1" as="geometry">
            <mxPoint as="offset" />
          </mxGeometry>
        </mxCell>
        <mxCell id="Lx16mgIpqbLcoNnjBxlw-3" value="msgcenter" style="rounded=1;whiteSpace=wrap;html=1;fillColor=#fff2cc;strokeColor=#d6b656;" vertex="1" parent="1">
          <mxGeometry x="170" y="230" width="390" height="60" as="geometry" />
        </mxCell>
        <mxCell id="Lx16mgIpqbLcoNnjBxlw-4" value="mysql" style="rounded=1;whiteSpace=wrap;html=1;fillColor=#b0e3e6;strokeColor=#0e8088;" vertex="1" parent="1">
          <mxGeometry x="170" y="330" width="390" height="40" as="geometry" />
        </mxCell>
        <mxCell id="Lx16mgIpqbLcoNnjBxlw-9" style="edgeStyle=orthogonalEdgeStyle;rounded=0;orthogonalLoop=1;jettySize=auto;html=1;exitX=0.5;exitY=1;exitDx=0;exitDy=0;entryX=0.179;entryY=0.017;entryDx=0;entryDy=0;entryPerimeter=0;" edge="1" parent="1" source="Lx16mgIpqbLcoNnjBxlw-1" target="Lx16mgIpqbLcoNnjBxlw-3">
          <mxGeometry relative="1" as="geometry" />
        </mxCell>
        <mxCell id="Lx16mgIpqbLcoNnjBxlw-10" value="发送异步任务发布请求" style="edgeLabel;html=1;align=center;verticalAlign=middle;resizable=0;points=[];" vertex="1" connectable="0" parent="Lx16mgIpqbLcoNnjBxlw-9">
          <mxGeometry x="-0.0853" relative="1" as="geometry">
            <mxPoint as="offset" />
          </mxGeometry>
        </mxCell>
        <mxCell id="Lx16mgIpqbLcoNnjBxlw-21" style="edgeStyle=orthogonalEdgeStyle;rounded=0;orthogonalLoop=1;jettySize=auto;html=1;exitX=0.5;exitY=0;exitDx=0;exitDy=0;entryX=1;entryY=0.5;entryDx=0;entryDy=0;curved=1;" edge="1" parent="1" source="Lx16mgIpqbLcoNnjBxlw-17" target="Lx16mgIpqbLcoNnjBxlw-2">
          <mxGeometry relative="1" as="geometry" />
        </mxCell>
        <mxCell id="Lx16mgIpqbLcoNnjBxlw-22" value="消费任务" style="edgeLabel;html=1;align=center;verticalAlign=middle;resizable=0;points=[];" vertex="1" connectable="0" parent="Lx16mgIpqbLcoNnjBxlw-21">
          <mxGeometry x="0.2174" y="13" relative="1" as="geometry">
            <mxPoint as="offset" />
          </mxGeometry>
        </mxCell>
        <mxCell id="Lx16mgIpqbLcoNnjBxlw-17" value="rabbitmq" style="rounded=1;whiteSpace=wrap;html=1;fillColor=#d5e8d4;strokeColor=#82b366;" vertex="1" parent="1">
          <mxGeometry x="640" y="230" width="120" height="60" as="geometry" />
        </mxCell>
        <mxCell id="Lx16mgIpqbLcoNnjBxlw-25" value="" style="endArrow=classic;html=1;rounded=0;entryX=0.5;entryY=1;entryDx=0;entryDy=0;exitX=0.823;exitY=0.017;exitDx=0;exitDy=0;exitPerimeter=0;" edge="1" parent="1" source="Lx16mgIpqbLcoNnjBxlw-3">
          <mxGeometry width="50" height="50" relative="1" as="geometry">
            <mxPoint x="490" y="230" as="sourcePoint" />
            <mxPoint x="490" y="170" as="targetPoint" />
          </mxGeometry>
        </mxCell>
        <mxCell id="Lx16mgIpqbLcoNnjBxlw-26" value="获取任务详细信息" style="edgeLabel;html=1;align=center;verticalAlign=middle;resizable=0;points=[];" vertex="1" connectable="0" parent="Lx16mgIpqbLcoNnjBxlw-25">
          <mxGeometry x="-0.0819" relative="1" as="geometry">
            <mxPoint as="offset" />
          </mxGeometry>
        </mxCell>
      </root>
    </mxGraphModel>
  </diagram>
</mxfile>
